<mxfile host="app.diagrams.net" agent="Mozilla/5.0 (X11; Linux x86_64) AppleWebKit/537.36 (KHTML, like Gecko) Chrome/127.0.0.0 Safari/537.36" version="24.7.7">
  <diagram name="Page-1" id="S2m-dytdy99O4l6GH0D5">
    <mxGraphModel dx="1805" dy="492" grid="1" gridSize="10" guides="1" tooltips="1" connect="1" arrows="1" fold="1" page="1" pageScale="1" pageWidth="850" pageHeight="1100" math="0" shadow="0">
      <root>
        <mxCell id="0" />
        <mxCell id="1" parent="0" />
        <mxCell id="hMQUEWpmmCufe4tWF-5V-1" value="USER" style="whiteSpace=wrap;html=1;align=center;" vertex="1" parent="1">
          <mxGeometry x="370" y="260" width="100" height="40" as="geometry" />
        </mxCell>
        <mxCell id="hMQUEWpmmCufe4tWF-5V-2" value="id" style="ellipse;whiteSpace=wrap;html=1;align=center;fontStyle=4;" vertex="1" parent="1">
          <mxGeometry x="510" y="320" width="100" height="40" as="geometry" />
        </mxCell>
        <mxCell id="hMQUEWpmmCufe4tWF-5V-3" value="" style="endArrow=none;html=1;rounded=0;" edge="1" parent="1" source="hMQUEWpmmCufe4tWF-5V-2" target="hMQUEWpmmCufe4tWF-5V-1">
          <mxGeometry width="50" height="50" relative="1" as="geometry">
            <mxPoint x="400" y="310" as="sourcePoint" />
            <mxPoint x="450" y="260" as="targetPoint" />
          </mxGeometry>
        </mxCell>
        <mxCell id="hMQUEWpmmCufe4tWF-5V-4" value="username" style="ellipse;whiteSpace=wrap;html=1;align=center;fontStyle=0;strokeColor=default;" vertex="1" parent="1">
          <mxGeometry x="550" y="260" width="100" height="40" as="geometry" />
        </mxCell>
        <mxCell id="hMQUEWpmmCufe4tWF-5V-5" value="" style="endArrow=none;html=1;rounded=0;" edge="1" parent="1" source="hMQUEWpmmCufe4tWF-5V-4" target="hMQUEWpmmCufe4tWF-5V-1">
          <mxGeometry width="50" height="50" relative="1" as="geometry">
            <mxPoint x="333" y="218" as="sourcePoint" />
            <mxPoint x="403" y="270" as="targetPoint" />
          </mxGeometry>
        </mxCell>
        <mxCell id="hMQUEWpmmCufe4tWF-5V-8" value="" style="endArrow=none;html=1;rounded=0;" edge="1" source="hMQUEWpmmCufe4tWF-5V-9" parent="1" target="hMQUEWpmmCufe4tWF-5V-56">
          <mxGeometry width="50" height="50" relative="1" as="geometry">
            <mxPoint x="408" y="-222" as="sourcePoint" />
            <mxPoint x="496" y="-180" as="targetPoint" />
          </mxGeometry>
        </mxCell>
        <mxCell id="hMQUEWpmmCufe4tWF-5V-9" value="level" style="ellipse;whiteSpace=wrap;html=1;align=center;fontStyle=0;strokeColor=default;" vertex="1" parent="1">
          <mxGeometry x="-100" y="190" width="100" height="40" as="geometry" />
        </mxCell>
        <mxCell id="hMQUEWpmmCufe4tWF-5V-10" value="avatar-filename" style="ellipse;whiteSpace=wrap;html=1;align=center;fontStyle=0;strokeColor=default;" vertex="1" parent="1">
          <mxGeometry x="370" y="180" width="100" height="40" as="geometry" />
        </mxCell>
        <mxCell id="hMQUEWpmmCufe4tWF-5V-11" value="" style="endArrow=none;html=1;rounded=0;" edge="1" source="hMQUEWpmmCufe4tWF-5V-10" parent="1" target="hMQUEWpmmCufe4tWF-5V-1">
          <mxGeometry width="50" height="50" relative="1" as="geometry">
            <mxPoint x="568" y="218" as="sourcePoint" />
            <mxPoint x="526" y="260" as="targetPoint" />
          </mxGeometry>
        </mxCell>
        <mxCell id="hMQUEWpmmCufe4tWF-5V-12" value="start-date" style="ellipse;whiteSpace=wrap;html=1;align=center;fontStyle=0;strokeColor=default;" vertex="1" parent="1">
          <mxGeometry y="150" width="100" height="40" as="geometry" />
        </mxCell>
        <mxCell id="hMQUEWpmmCufe4tWF-5V-13" value="" style="endArrow=none;html=1;rounded=0;" edge="1" source="hMQUEWpmmCufe4tWF-5V-12" parent="1" target="hMQUEWpmmCufe4tWF-5V-56">
          <mxGeometry width="50" height="50" relative="1" as="geometry">
            <mxPoint x="677" y="218" as="sourcePoint" />
            <mxPoint x="540" y="260" as="targetPoint" />
          </mxGeometry>
        </mxCell>
        <mxCell id="hMQUEWpmmCufe4tWF-5V-14" value="share-progress" style="ellipse;whiteSpace=wrap;html=1;align=center;fontStyle=0;strokeColor=default;" vertex="1" parent="1">
          <mxGeometry x="490" y="200" width="100" height="40" as="geometry" />
        </mxCell>
        <mxCell id="hMQUEWpmmCufe4tWF-5V-15" value="" style="endArrow=none;html=1;rounded=0;" edge="1" source="hMQUEWpmmCufe4tWF-5V-14" parent="1" target="hMQUEWpmmCufe4tWF-5V-1">
          <mxGeometry width="50" height="50" relative="1" as="geometry">
            <mxPoint x="770" y="258" as="sourcePoint" />
            <mxPoint x="540" y="300" as="targetPoint" />
          </mxGeometry>
        </mxCell>
        <mxCell id="hMQUEWpmmCufe4tWF-5V-23" value="" style="endArrow=none;html=1;rounded=0;" edge="1" parent="1" source="hMQUEWpmmCufe4tWF-5V-1" target="hMQUEWpmmCufe4tWF-5V-33">
          <mxGeometry relative="1" as="geometry">
            <mxPoint x="420" y="320" as="sourcePoint" />
            <mxPoint x="420" y="350" as="targetPoint" />
          </mxGeometry>
        </mxCell>
        <mxCell id="hMQUEWpmmCufe4tWF-5V-25" value="1" style="resizable=0;html=1;whiteSpace=wrap;align=right;verticalAlign=bottom;" connectable="0" vertex="1" parent="hMQUEWpmmCufe4tWF-5V-23">
          <mxGeometry x="1" relative="1" as="geometry" />
        </mxCell>
        <mxCell id="hMQUEWpmmCufe4tWF-5V-28" value="text" style="ellipse;whiteSpace=wrap;html=1;align=center;fontStyle=0;strokeColor=default;" vertex="1" parent="1">
          <mxGeometry x="370" y="530" width="100" height="40" as="geometry" />
        </mxCell>
        <mxCell id="hMQUEWpmmCufe4tWF-5V-29" value="date" style="ellipse;whiteSpace=wrap;html=1;align=center;fontStyle=0;strokeColor=default;" vertex="1" parent="1">
          <mxGeometry x="510" y="460" width="100" height="40" as="geometry" />
        </mxCell>
        <mxCell id="hMQUEWpmmCufe4tWF-5V-30" value="" style="endArrow=none;html=1;rounded=0;" edge="1" parent="1" source="hMQUEWpmmCufe4tWF-5V-32" target="hMQUEWpmmCufe4tWF-5V-28">
          <mxGeometry width="50" height="50" relative="1" as="geometry">
            <mxPoint x="402.8571428571429" y="500.0000000000001" as="sourcePoint" />
            <mxPoint x="426" y="270" as="targetPoint" />
          </mxGeometry>
        </mxCell>
        <mxCell id="hMQUEWpmmCufe4tWF-5V-31" value="" style="endArrow=none;html=1;rounded=0;" edge="1" parent="1" source="hMQUEWpmmCufe4tWF-5V-32" target="hMQUEWpmmCufe4tWF-5V-29">
          <mxGeometry width="50" height="50" relative="1" as="geometry">
            <mxPoint x="442.8571428571429" y="500.0000000000001" as="sourcePoint" />
            <mxPoint x="386" y="541" as="targetPoint" />
          </mxGeometry>
        </mxCell>
        <mxCell id="hMQUEWpmmCufe4tWF-5V-32" value="NOTE" style="shape=ext;margin=3;double=1;whiteSpace=wrap;html=1;align=center;" vertex="1" parent="1">
          <mxGeometry x="370" y="460" width="100" height="40" as="geometry" />
        </mxCell>
        <mxCell id="hMQUEWpmmCufe4tWF-5V-33" value="has" style="shape=rhombus;double=1;perimeter=rhombusPerimeter;whiteSpace=wrap;html=1;align=center;" vertex="1" parent="1">
          <mxGeometry x="360" y="350" width="120" height="60" as="geometry" />
        </mxCell>
        <mxCell id="hMQUEWpmmCufe4tWF-5V-34" value="" style="shape=link;html=1;rounded=0;" edge="1" parent="1" source="hMQUEWpmmCufe4tWF-5V-32" target="hMQUEWpmmCufe4tWF-5V-33">
          <mxGeometry relative="1" as="geometry">
            <mxPoint x="360" y="390" as="sourcePoint" />
            <mxPoint x="520" y="390" as="targetPoint" />
          </mxGeometry>
        </mxCell>
        <mxCell id="hMQUEWpmmCufe4tWF-5V-35" value="N" style="resizable=0;html=1;whiteSpace=wrap;align=right;verticalAlign=bottom;" connectable="0" vertex="1" parent="hMQUEWpmmCufe4tWF-5V-34">
          <mxGeometry x="1" relative="1" as="geometry">
            <mxPoint x="20" y="20" as="offset" />
          </mxGeometry>
        </mxCell>
        <mxCell id="hMQUEWpmmCufe4tWF-5V-36" value="&lt;span style=&quot;border-bottom: 1px dotted&quot;&gt;id&lt;/span&gt;" style="ellipse;whiteSpace=wrap;html=1;align=center;" vertex="1" parent="1">
          <mxGeometry x="230" y="460" width="100" height="40" as="geometry" />
        </mxCell>
        <mxCell id="hMQUEWpmmCufe4tWF-5V-37" value="" style="endArrow=none;html=1;rounded=0;" edge="1" parent="1" source="hMQUEWpmmCufe4tWF-5V-32" target="hMQUEWpmmCufe4tWF-5V-36">
          <mxGeometry width="50" height="50" relative="1" as="geometry">
            <mxPoint x="413" y="510" as="sourcePoint" />
            <mxPoint x="386" y="541" as="targetPoint" />
          </mxGeometry>
        </mxCell>
        <mxCell id="hMQUEWpmmCufe4tWF-5V-46" value="name" style="ellipse;whiteSpace=wrap;html=1;align=center;fontStyle=4;" vertex="1" parent="1">
          <mxGeometry x="-110" y="495" width="100" height="40" as="geometry" />
        </mxCell>
        <mxCell id="hMQUEWpmmCufe4tWF-5V-47" value="" style="endArrow=none;html=1;rounded=0;" edge="1" parent="1" source="hMQUEWpmmCufe4tWF-5V-71" target="hMQUEWpmmCufe4tWF-5V-46">
          <mxGeometry width="50" height="50" relative="1" as="geometry">
            <mxPoint y="496.53846153846143" as="sourcePoint" />
            <mxPoint x="310" y="364" as="targetPoint" />
          </mxGeometry>
        </mxCell>
        <mxCell id="hMQUEWpmmCufe4tWF-5V-48" value="conclusion-date" style="ellipse;whiteSpace=wrap;html=1;align=center;fontStyle=0;strokeColor=default;" vertex="1" parent="1">
          <mxGeometry y="530" width="100" height="40" as="geometry" />
        </mxCell>
        <mxCell id="hMQUEWpmmCufe4tWF-5V-49" value="" style="endArrow=none;html=1;rounded=0;" edge="1" parent="1" source="hMQUEWpmmCufe4tWF-5V-71" target="hMQUEWpmmCufe4tWF-5V-48">
          <mxGeometry width="50" height="50" relative="1" as="geometry">
            <mxPoint x="50" y="505" as="sourcePoint" />
            <mxPoint x="-52" y="532" as="targetPoint" />
          </mxGeometry>
        </mxCell>
        <mxCell id="hMQUEWpmmCufe4tWF-5V-53" value="&lt;u&gt;goal-day&lt;/u&gt;" style="ellipse;whiteSpace=wrap;html=1;align=center;fontStyle=0;strokeColor=default;" vertex="1" parent="1">
          <mxGeometry x="-110" y="425" width="100" height="40" as="geometry" />
        </mxCell>
        <mxCell id="hMQUEWpmmCufe4tWF-5V-54" value="" style="endArrow=none;html=1;rounded=0;" edge="1" parent="1" source="hMQUEWpmmCufe4tWF-5V-71" target="hMQUEWpmmCufe4tWF-5V-53">
          <mxGeometry width="50" height="50" relative="1" as="geometry">
            <mxPoint y="465.7692307692307" as="sourcePoint" />
            <mxPoint x="60" y="435" as="targetPoint" />
          </mxGeometry>
        </mxCell>
        <mxCell id="hMQUEWpmmCufe4tWF-5V-55" value="[1,21]" style="text;html=1;align=center;verticalAlign=middle;resizable=0;points=[];autosize=1;strokeColor=none;fillColor=none;" vertex="1" parent="1">
          <mxGeometry x="-120" y="395" width="50" height="30" as="geometry" />
        </mxCell>
        <mxCell id="hMQUEWpmmCufe4tWF-5V-56" value="BATCH" style="shape=ext;margin=3;double=1;whiteSpace=wrap;html=1;align=center;" vertex="1" parent="1">
          <mxGeometry y="260" width="100" height="40" as="geometry" />
        </mxCell>
        <mxCell id="hMQUEWpmmCufe4tWF-5V-57" value="&lt;span style=&quot;border-bottom: 1px dotted&quot;&gt;id&lt;/span&gt;" style="ellipse;whiteSpace=wrap;html=1;align=center;" vertex="1" parent="1">
          <mxGeometry x="80" y="190" width="100" height="40" as="geometry" />
        </mxCell>
        <mxCell id="hMQUEWpmmCufe4tWF-5V-58" value="" style="endArrow=none;html=1;rounded=0;" edge="1" parent="1" source="hMQUEWpmmCufe4tWF-5V-57" target="hMQUEWpmmCufe4tWF-5V-56">
          <mxGeometry width="50" height="50" relative="1" as="geometry">
            <mxPoint x="-10" y="70" as="sourcePoint" />
            <mxPoint x="30" y="70" as="targetPoint" />
          </mxGeometry>
        </mxCell>
        <mxCell id="hMQUEWpmmCufe4tWF-5V-59" value="has" style="shape=rhombus;double=1;perimeter=rhombusPerimeter;whiteSpace=wrap;html=1;align=center;" vertex="1" parent="1">
          <mxGeometry x="-10" y="350" width="120" height="60" as="geometry" />
        </mxCell>
        <mxCell id="hMQUEWpmmCufe4tWF-5V-62" value="" style="shape=link;html=1;rounded=0;" edge="1" parent="1" source="hMQUEWpmmCufe4tWF-5V-71" target="hMQUEWpmmCufe4tWF-5V-59">
          <mxGeometry relative="1" as="geometry">
            <mxPoint x="50" y="580" as="sourcePoint" />
            <mxPoint x="72" y="431" as="targetPoint" />
          </mxGeometry>
        </mxCell>
        <mxCell id="hMQUEWpmmCufe4tWF-5V-63" value="N" style="resizable=0;html=1;whiteSpace=wrap;align=right;verticalAlign=bottom;" connectable="0" vertex="1" parent="hMQUEWpmmCufe4tWF-5V-62">
          <mxGeometry x="1" relative="1" as="geometry">
            <mxPoint x="22" y="21" as="offset" />
          </mxGeometry>
        </mxCell>
        <mxCell id="hMQUEWpmmCufe4tWF-5V-64" value="started" style="shape=rhombus;double=1;perimeter=rhombusPerimeter;whiteSpace=wrap;html=1;align=center;" vertex="1" parent="1">
          <mxGeometry x="180" y="250" width="120" height="60" as="geometry" />
        </mxCell>
        <mxCell id="hMQUEWpmmCufe4tWF-5V-67" value="" style="shape=link;html=1;rounded=0;" edge="1" parent="1" source="hMQUEWpmmCufe4tWF-5V-56" target="hMQUEWpmmCufe4tWF-5V-64">
          <mxGeometry relative="1" as="geometry">
            <mxPoint x="422" y="270" as="sourcePoint" />
            <mxPoint x="370" y="135" as="targetPoint" />
          </mxGeometry>
        </mxCell>
        <mxCell id="hMQUEWpmmCufe4tWF-5V-68" value="N" style="resizable=0;html=1;whiteSpace=wrap;align=right;verticalAlign=bottom;" connectable="0" vertex="1" parent="hMQUEWpmmCufe4tWF-5V-67">
          <mxGeometry x="1" relative="1" as="geometry">
            <mxPoint x="-7" y="-6" as="offset" />
          </mxGeometry>
        </mxCell>
        <mxCell id="hMQUEWpmmCufe4tWF-5V-69" value="" style="endArrow=none;html=1;rounded=0;" edge="1" parent="1" source="hMQUEWpmmCufe4tWF-5V-1" target="hMQUEWpmmCufe4tWF-5V-64">
          <mxGeometry relative="1" as="geometry">
            <mxPoint x="430" y="310" as="sourcePoint" />
            <mxPoint x="430" y="360" as="targetPoint" />
          </mxGeometry>
        </mxCell>
        <mxCell id="hMQUEWpmmCufe4tWF-5V-70" value="1" style="resizable=0;html=1;whiteSpace=wrap;align=right;verticalAlign=bottom;" connectable="0" vertex="1" parent="hMQUEWpmmCufe4tWF-5V-69">
          <mxGeometry x="1" relative="1" as="geometry">
            <mxPoint x="20" as="offset" />
          </mxGeometry>
        </mxCell>
        <mxCell id="hMQUEWpmmCufe4tWF-5V-71" value="GOAL" style="shape=ext;margin=3;double=1;whiteSpace=wrap;html=1;align=center;" vertex="1" parent="1">
          <mxGeometry y="465" width="100" height="40" as="geometry" />
        </mxCell>
        <mxCell id="hMQUEWpmmCufe4tWF-5V-75" value="" style="endArrow=none;html=1;rounded=0;" edge="1" parent="1" source="hMQUEWpmmCufe4tWF-5V-56" target="hMQUEWpmmCufe4tWF-5V-59">
          <mxGeometry relative="1" as="geometry">
            <mxPoint x="430" y="310" as="sourcePoint" />
            <mxPoint x="430" y="360" as="targetPoint" />
          </mxGeometry>
        </mxCell>
        <mxCell id="hMQUEWpmmCufe4tWF-5V-76" value="1" style="resizable=0;html=1;whiteSpace=wrap;align=right;verticalAlign=bottom;" connectable="0" vertex="1" parent="hMQUEWpmmCufe4tWF-5V-75">
          <mxGeometry x="1" relative="1" as="geometry" />
        </mxCell>
      </root>
    </mxGraphModel>
  </diagram>
</mxfile>
